<?xml version="1.0" encoding="UTF-8" standalone="no"?>
<svg width="29px" height="29px" viewBox="0 0 29 29" version="1.1" xmlns="http://www.w3.org/2000/svg" xmlns:xlink="http://www.w3.org/1999/xlink">
    <!-- Generator: Sketch 40.3 (33839) - http://www.bohemiancoding.com/sketch -->
    <title>Group</title>
    <desc>Created with Sketch.</desc>
    <defs></defs>
    <g id="Page" stroke="none" stroke-width="1" fill="none" fill-rule="evenodd">
        <g id="index" transform="translate(-1539.000000, -25.000000)">
            <g id="Group" transform="translate(1537.000000, 23.000000)">
                <path d="M16.5,2.75 C8.903125,2.75 2.75,8.903125 2.75,16.5 C2.75,24.096875 8.903125,30.25 16.5,30.25 C24.096875,30.25 30.25,24.096875 30.25,16.5 C30.25,8.903125 24.096875,2.75 16.5,2.75 L16.5,2.75 Z M16.5,6.875 C18.775625,6.875 20.625,8.724375 20.625,11 C20.625,13.2825 18.775625,15.125 16.5,15.125 C14.224375,15.125 12.375,13.2825 12.375,11 C12.375,8.724375 14.224375,6.875 16.5,6.875 L16.5,6.875 Z M16.5,26.4 C13.055625,26.4 10.030625,24.64 8.25,21.9725 C8.284375,19.243125 13.756875,17.7375 16.5,17.7375 C19.243125,17.7375 24.70875,19.243125 24.75,21.9725 C22.969375,24.64 19.944375,26.4 16.5,26.4 L16.5,26.4 Z" id="Shape" fill="#000000"></path>
                <polygon id="Shape" points="0 0 33 0 33 33 0 33"></polygon>
            </g>
        </g>
    </g>
</svg>