<?xml version="1.0" encoding="UTF-8" standalone="no"?>
<svg width="20px" height="20px" viewBox="0 0 20 20" version="1.1" xmlns="http://www.w3.org/2000/svg" xmlns:xlink="http://www.w3.org/1999/xlink">
    <!-- Generator: Sketch 40.3 (33839) - http://www.bohemiancoding.com/sketch -->
    <title>Shape</title>
    <desc>Created with Sketch.</desc>
    <defs></defs>
    <g id="Page" stroke="none" stroke-width="1" fill="none" fill-rule="evenodd">
        <g id="index" transform="translate(-1545.000000, -138.000000)" fill="#CDCDCD">
            <path d="M1545,143 L1550,143 L1550,138 L1545,138 L1545,143 L1545,143 Z M1552.5,158 L1557.5,158 L1557.5,153 L1552.5,153 L1552.5,158 L1552.5,158 Z M1545,158 L1550,158 L1550,153 L1545,153 L1545,158 L1545,158 Z M1545,150.5 L1550,150.5 L1550,145.5 L1545,145.5 L1545,150.5 L1545,150.5 Z M1552.5,150.5 L1557.5,150.5 L1557.5,145.5 L1552.5,145.5 L1552.5,150.5 L1552.5,150.5 Z M1560,138 L1560,143 L1565,143 L1565,138 L1560,138 L1560,138 Z M1552.5,143 L1557.5,143 L1557.5,138 L1552.5,138 L1552.5,143 L1552.5,143 Z M1560,150.5 L1565,150.5 L1565,145.5 L1560,145.5 L1560,150.5 L1560,150.5 Z M1560,158 L1565,158 L1565,153 L1560,153 L1560,158 L1560,158 Z" id="Shape"></path>
        </g>
    </g>
</svg>