<?xml version="1.0" encoding="UTF-8"?>
<svg width="360px" height="140px" viewBox="0 0 360 140" version="1.1" xmlns="http://www.w3.org/2000/svg" xmlns:xlink="http://www.w3.org/1999/xlink">
    <!-- Generator: Sketch 41 (35326) - http://www.bohemiancoding.com/sketch -->
    <title>svg_sprite</title>
    <desc>Created with Sketch.</desc>
    <defs>
        <polygon id="path-1" points="0 0 20 0 20 20 0 20"></polygon>
    </defs>
    <g id="icon" stroke="none" stroke-width="1" fill="none" fill-rule="evenodd">
        <g id="svg_sprite">
            <g id="ic-account-circle-48-px" transform="translate(40.000000, 50.000000)">
                <g id="Group">
                    <path d="M20.5,6.75 C12.903125,6.75 6.75,12.903125 6.75,20.5 C6.75,28.096875 12.903125,34.25 20.5,34.25 C28.096875,34.25 34.25,28.096875 34.25,20.5 C34.25,12.903125 28.096875,6.75 20.5,6.75 L20.5,6.75 Z M20.5,10.875 C22.775625,10.875 24.625,12.724375 24.625,15 C24.625,17.2825 22.775625,19.125 20.5,19.125 C18.224375,19.125 16.375,17.2825 16.375,15 C16.375,12.724375 18.224375,10.875 20.5,10.875 L20.5,10.875 Z M20.5,30.4 C17.055625,30.4 14.030625,28.64 12.25,25.9725 C12.284375,23.243125 17.756875,21.7375 20.5,21.7375 C23.243125,21.7375 28.70875,23.243125 28.75,25.9725 C26.969375,28.64 23.944375,30.4 20.5,30.4 L20.5,30.4 Z" id="Shape" fill="#222222"></path>
                    <polygon id="Shape" points="0.5 0.5 40.5 0.5 40.5 40.5 0.5 40.5"></polygon>
                </g>
            </g>
            <g id="ic-done-48-px" transform="translate(40.000000, 120.000000)">
                <g id="Group">
                    <polygon id="Shape" points="0 0 20 0 20 20 0 20"></polygon>
                    <polygon id="Shape" fill="#222222" points="7.5 13.475 4.025 10 2.84583333 11.1791667 7.5 15.8333333 17.5 5.83333333 16.3208333 4.65416667"></polygon>
                </g>
            </g>
            <g id="ic-favorite-border-48-px" transform="translate(20.000000, 120.000000)">
                <g id="Group">
                    <polygon id="Shape" points="0 0 20 0 20 20 0 20"></polygon>
                    <path d="M13.75,2.5 C12.3,2.5 10.9083333,3.175 10,4.2375 C9.09166667,3.175 7.7,2.5 6.25,2.5 C3.67916667,2.5 1.66666667,4.5125 1.66666667,7.08333333 C1.66666667,10.2291667 4.5,12.8 8.79166667,16.6958333 L10,17.7916667 L11.2083333,16.6958333 C15.5,12.8 18.3333333,10.2291667 18.3333333,7.08333333 C18.3333333,4.5125 16.3208333,2.5 13.75,2.5 L13.75,2.5 Z M10.0875,15.4625 L10,15.5416667 L9.9125,15.4625 C5.95,11.8666667 3.33333333,9.49166667 3.33333333,7.08333333 C3.33333333,5.42083333 4.5875,4.16666667 6.25,4.16666667 C7.53333333,4.16666667 8.78333333,4.99583333 9.22083333,6.13333333 L10.775,6.13333333 C11.2166667,4.99583333 12.4666667,4.16666667 13.75,4.16666667 C15.4125,4.16666667 16.6666667,5.42083333 16.6666667,7.08333333 C16.6666667,9.49166667 14.05,11.8666667 10.0875,15.4625 L10.0875,15.4625 Z" id="Shape" fill="#222222"></path>
                </g>
            </g>
            <g id="ic-lightbulb-outline-48-px" transform="translate(0.000000, 120.000000)">
                <g id="Clipped">
                    <mask id="mask-2" fill="white">
                        <use xlink:href="#path-1"></use>
                    </mask>
                    <g id="a"></g>
                    <path d="M7.5,17.5 C7.5,17.9583333 7.875,18.3333333 8.33333333,18.3333333 L11.6666667,18.3333333 C12.125,18.3333333 12.5,17.9583333 12.5,17.5 L12.5,16.6666667 L7.5,16.6666667 L7.5,17.5 L7.5,17.5 Z M10,1.66666667 C6.77916667,1.66666667 4.16666667,4.27916667 4.16666667,7.5 C4.16666667,9.48333333 5.15833333,11.2291667 6.66666667,12.2833333 L6.66666667,14.1666667 C6.66666667,14.625 7.04166667,15 7.5,15 L12.5,15 C12.9583333,15 13.3333333,14.625 13.3333333,14.1666667 L13.3333333,12.2833333 C14.8416667,11.2291667 15.8333333,9.48333333 15.8333333,7.5 C15.8333333,4.27916667 13.2208333,1.66666667 10,1.66666667 L10,1.66666667 Z M12.3791667,10.9166667 L11.6666667,11.4125 L11.6666667,13.3333333 L8.33333333,13.3333333 L8.33333333,11.4166667 L7.62083333,10.9208333 C6.5,10.1375 5.83333333,8.8625 5.83333333,7.50416667 C5.83333333,5.20833333 7.70416667,3.3375 10,3.3375 C12.2958333,3.3375 14.1666667,5.20833333 14.1666667,7.50416667 C14.1666667,8.85833333 13.5,10.1333333 12.3791667,10.9166667 L12.3791667,10.9166667 Z" id="Shape" fill="#222222" mask="url(#mask-2)"></path>
                </g>
            </g>
            <g id="ic-clear-48-px" transform="translate(0.000000, 50.000000)">
                <g id="Group">
                    <polygon id="Shape" fill="#222222" points="31.6666667 10.6916667 29.3083333 8.33333333 20 17.6416667 10.6916667 8.33333333 8.33333333 10.6916667 17.6416667 20 8.33333333 29.3083333 10.6916667 31.6666667 20 22.3583333 29.3083333 31.6666667 31.6666667 29.3083333 22.3583333 20"></polygon>
                    <polygon id="Shape" points="0 0 40 0 40 40 0 40"></polygon>
                </g>
            </g>
            <g id="icon-prev">
                <g id="Assets">
                    <g>
                        <g id="Web-assets">
                            <polygon id="prev" fill="#222222" transform="translate(11.627907, 25.000000) scale(-1, 1) translate(-11.627907, -25.000000) " points="23.255814 25.5813953 1.1627907 50 4.61852778e-14 48.8372093 20.9302326 25.5813953 4.61852778e-14 1.1627907 1.1627907 0"></polygon>
                            <rect id="Rectangle" x="0" y="0" width="30" height="50"></rect>
                        </g>
                    </g>
                </g>
            </g>
            <g id="icon-prev" transform="translate(45.000000, 25.000000) rotate(-180.000000) translate(-45.000000, -25.000000) translate(30.000000, 0.000000)">
                <g id="Assets">
                    <g>
                        <g id="Web-assets">
                            <polygon id="prev" fill="#222222" transform="translate(11.627907, 25.000000) scale(-1, 1) translate(-11.627907, -25.000000) " points="23.255814 25.5813953 1.1627907 50 4.61852778e-14 48.8372093 20.9302326 25.5813953 4.61852778e-14 1.1627907 1.1627907 0"></polygon>
                            <rect id="Rectangle-2" x="0" y="0" width="30" height="50"></rect>
                        </g>
                    </g>
                </g>
            </g>
            <g id="ic-clear-all-48-px" transform="translate(0.000000, 90.000000)">
                <g id="Group">
                    <polygon id="Shape" points="0 0 30 0 30 30 0 30"></polygon>
                    <path d="M6.25,16.25 L23.75,16.25 L23.75,13.75 L6.25,13.75 L6.25,16.25 L6.25,16.25 Z M3.75,21.25 L21.25,21.25 L21.25,18.75 L3.75,18.75 L3.75,21.25 L3.75,21.25 Z M8.75,8.75 L8.75,11.25 L26.25,11.25 L26.25,8.75 L8.75,8.75 L8.75,8.75 Z" id="Shape" fill="#222222"></path>
                </g>
            </g>
            <g id="Group-8" transform="translate(60.000000, 90.000000)">
                <polygon id="Shape" points="0 0 30 0 30 30 0 30"></polygon>
                <path d="M5,10 L10,10 L10,5 L5,5 L5,10 L5,10 Z M12.5,25 L17.5,25 L17.5,20 L12.5,20 L12.5,25 L12.5,25 Z M5,25 L10,25 L10,20 L5,20 L5,25 L5,25 Z M5,17.5 L10,17.5 L10,12.5 L5,12.5 L5,17.5 L5,17.5 Z M12.5,17.5 L17.5,17.5 L17.5,12.5 L12.5,12.5 L12.5,17.5 L12.5,17.5 Z M20,5 L20,10 L25,10 L25,5 L20,5 L20,5 Z M12.5,10 L17.5,10 L17.5,5 L12.5,5 L12.5,10 L12.5,10 Z M20,17.5 L25,17.5 L25,12.5 L20,12.5 L20,17.5 L20,17.5 Z M20,25 L25,25 L25,20 L20,20 L20,25 L20,25 Z" id="Shape" fill="#222222"></path>
            </g>
            <g id="Group-7" transform="translate(30.000000, 90.000000)">
                <polygon id="Shape" points="0 0 30 0 30 30 0 30"></polygon>
                <path d="M5,13 L13,13 L13,5 L5,5 L5,13 L5,13 Z M5,25 L13,25 L13,17 L5,17 L5,25 L5,25 Z M17,25 L25,25 L25,17 L17,17 L17,25 L17,25 Z M17,13 L25,13 L25,5 L17,5 L17,13 L17,13 Z" id="Shape" fill="#222222"></path>
            </g>
            <g id="ic-fullscreen-48-px" transform="translate(90.000000, 90.000000)">
                <g id="Group">
                    <polygon id="Shape" points="0 0 30 0 30 30 0 30"></polygon>
                    <path d="M8.75,17.5 L6.25,17.5 L6.25,23.75 L12.5,23.75 L12.5,21.25 L8.75,21.25 L8.75,17.5 L8.75,17.5 Z M6.25,12.5 L8.75,12.5 L8.75,8.75 L12.5,8.75 L12.5,6.25 L6.25,6.25 L6.25,12.5 L6.25,12.5 Z M21.25,21.25 L17.5,21.25 L17.5,23.75 L23.75,23.75 L23.75,17.5 L21.25,17.5 L21.25,21.25 L21.25,21.25 Z M17.5,6.25 L17.5,8.75 L21.25,8.75 L21.25,12.5 L23.75,12.5 L23.75,6.25 L17.5,6.25 L17.5,6.25 Z" id="Shape" fill="#222222"></path>
                </g>
            </g>
            <g id="ic-get-app-48-px" transform="translate(120.000000, 90.000000)">
                <g id="Group">
                    <polygon id="Shape" points="0 0 30 0 30 30 0 30"></polygon>
                    <path d="M22.4117647,11.9029414 L18.1764706,11.9029414 L18.1764706,5.55000019 L11.8235294,5.55000019 L11.8235294,11.9029414 L7.58823529,11.9029414 L15,19.3147061 L22.4117647,11.9029414 L22.4117647,11.9029414 Z M7.58823529,21.4323531 L7.58823529,23.5500002 L22.4117647,23.5500002 L22.4117647,21.4323531 L7.58823529,21.4323531 L7.58823529,21.4323531 Z" id="Shape" fill="#222222"></path>
                </g>
            </g>
            <g id="ic-search-48-px" transform="translate(150.000000, 90.000000)">
                <g id="Group">
                    <path d="M19.375,17.5 L18.38125,17.5 L18.0375,17.15625 C19.2625,15.7375 20,13.89375 20,11.875 C20,7.3875 16.3625,3.75 11.875,3.75 C7.3875,3.75 3.75,7.3875 3.75,11.875 C3.75,16.3625 7.3875,20 11.875,20 C13.89375,20 15.7375,19.2625 17.15625,18.04375 L17.5,18.3875 L17.5,19.375 L23.75,25.6125 L25.6125,23.75 L19.375,17.5 L19.375,17.5 Z M11.875,17.5 C8.76875,17.5 6.25,14.98125 6.25,11.875 C6.25,8.76875 8.76875,6.25 11.875,6.25 C14.98125,6.25 17.5,8.76875 17.5,11.875 C17.5,14.98125 14.98125,17.5 11.875,17.5 L11.875,17.5 Z" id="Shape" fill="#222222"></path>
                    <polygon id="Shape" points="0 0 30 0 30 30 0 30"></polygon>
                </g>
            </g>
            <g id="ic-keyboard-arrow-down-48-px" transform="translate(270.000000, 90.000000)">
                <g id="Group">
                    <polygon id="Shape" fill="#222222" points="9.26875 13.6653061 15 19.2795918 20.73125 13.6653061 22.5 15.3979592 15 22.744898 7.5 15.3979592"></polygon>
                    <polygon id="Shape" points="0 0 30 0 30 29.3877551 0 29.3877551"></polygon>
                </g>
            </g>
            <g id="ic-keyboard-arrow-down-48-px-copy" transform="translate(315.000000, 105.000000) rotate(-180.000000) translate(-315.000000, -105.000000) translate(300.000000, 90.000000)">
                <g id="Group" transform="translate(0.000000, 0.000000)">
                    <polygon id="Shape" fill="#222222" points="9.26875 13.6653061 15 19.2795918 20.73125 13.6653061 22.5 15.3979592 15 22.744898 7.5 15.3979592"></polygon>
                    <polygon id="Shape" points="0 0 30 0 30 29.3877551 0 29.3877551"></polygon>
                </g>
            </g>
            <g id="Group-2" transform="translate(180.000000, 90.000000)">
                <path d="M24.9644349,11.096925 L22.0721722,6.27477173 C21.8971955,5.98657473 21.5832666,5.80645161 21.2436059,5.80645161 L9.66426237,5.80645161 C9.32460163,5.80645161 9.01067276,5.98657473 8.83569601,6.27477173 L5.94343332,11.096925 C5.74787108,11.4211466 5.7633102,11.8328566 5.97945795,12.1416391 L14.6613924,24.6833547 C14.8415155,24.9458198 15.1400053,25.1002111 15.4539341,25.1002111 C15.7730094,25.1002111 16.0663527,24.9458198 16.2464759,24.6833547 L24.9284103,12.1416391 C25.1497044,11.8277102 25.1599972,11.4211466 24.9644349,11.096925 L24.9644349,11.096925 Z M10.2097781,7.73119582 L20.6980901,7.73119582 L22.4324185,10.6234585 L8.47544977,10.6234585 L10.2097781,7.73119582 L10.2097781,7.73119582 Z M15.4539341,22.4395353 L8.60925552,12.5584955 L22.2986127,12.5584955 L15.4539341,22.4395353 L15.4539341,22.4395353 Z" id="Shape" fill="#222222"></path>
                <rect id="Rectangle-3" x="0" y="0" width="30" height="30"></rect>
            </g>
            <g id="Group-4" transform="translate(240.000000, 90.000000)">
                <path d="M24.9361702,16.0691489 C24.9734043,15.7978723 24.893617,15.5212766 24.7180851,15.3085106 L20.6702128,10.356383 L21.0053191,9.65425532 C21.2446809,9.15957447 21.0319149,8.56382979 20.537234,8.32446809 L14.2446809,5.31382979 C14.0425532,5.21808511 13.8244681,5.21276596 13.6223404,5.25 C13.4468085,5.10106383 13.2287234,5 12.9787234,5 L5.99468085,5 C5.44148936,5 5,5.44680851 5,5.99468085 L5,23.9468085 C5,24.5 5.44680851,24.9414894 5.99468085,24.9414894 L12.9734043,24.9414894 L12.9734043,24.9414894 L12.9734043,24.9414894 C12.9893617,24.9414894 13.0053191,24.9361702 13.0212766,24.9361702 C13.0319149,24.9361702 13.0425532,24.9414894 13.0531915,24.9414894 C13.356383,24.9414894 13.643617,24.7978723 13.8351064,24.5478723 L24.5319149,16.7446809 C24.7606383,16.5851064 24.9042553,16.3404255 24.9361702,16.0691489 L24.9361702,16.0691489 Z M18.7819149,9.69680851 L13.9787234,19.7287234 L13.9787234,7.39361702 L18.7819149,9.69680851 L18.7819149,9.69680851 Z M11.9787234,22.9521277 L6.99468085,22.9521277 L6.99468085,6.99468085 L11.9787234,6.99468085 L11.9787234,22.9521277 L11.9787234,22.9521277 Z M15.712766,20.7180851 L19.7234043,12.3457447 L22.5106383,15.7553191 L15.712766,20.7180851 Z M9.4893617,21.9521277 C10.3148511,21.9521277 10.9840426,21.2829362 10.9840426,20.4574468 C10.9840426,19.6319574 10.3148511,18.962766 9.4893617,18.962766 C8.66387226,18.962766 7.99468085,19.6319574 7.99468085,20.4574468 C7.99468085,21.2829362 8.66387226,21.9521277 9.4893617,21.9521277 Z" id="Combined-Shape" fill="#222222"></path>
                <rect id="Rectangle-4" x="0" y="0" width="30" height="30"></rect>
            </g>
            <g id="Group-3" transform="translate(210.000000, 90.000000)">
                <path d="M23.1968085,6.75132979 C20.8617021,4.4162234 17.0638298,4.4162234 14.7340426,6.75132979 L5.87765957,15.6077128 C4.70744681,16.7726064 4.70744681,18.6715426 5.87765957,19.8417553 L10.1117021,24.0757979 C11.2765957,25.2406915 13.1755319,25.2406915 14.3457447,24.0757979 L23.2021277,15.2194149 C25.5319149,12.8843085 25.5319149,9.08643617 23.1968085,6.75132979 L23.1968085,6.75132979 Z M21.787234,13.8045213 L12.9308511,22.6609043 C12.5425532,23.0492021 11.9095745,23.0492021 11.5212766,22.6609043 L7.28723404,18.4321809 C6.89893617,18.043883 6.89893617,17.4109043 7.28723404,17.0226064 L16.143617,8.16090426 C17.6968085,6.60771277 20.2287234,6.60771277 21.787234,8.16090426 C23.3404255,9.71941489 23.3404255,12.2513298 21.787234,13.8045213 Z M19.643617,11.3031915 C20.1959018,11.3031915 20.643617,10.8554762 20.643617,10.3031915 C20.643617,9.75090674 20.1959018,9.30319149 19.643617,9.30319149 C19.0913323,9.30319149 18.643617,9.75090674 18.643617,10.3031915 C18.643617,10.8554762 19.0913323,11.3031915 19.643617,11.3031915 Z" id="Combined-Shape" fill="#222222"></path>
                <rect id="Rectangle-3" x="0" y="0" width="30" height="30"></rect>
            </g>
            <g id="ic-clear-48-px" transform="translate(60.000000, 120.000000)">
                <g id="Group">
                    <polygon id="Shape" fill="#222222" points="15.8333333 5.34583333 14.6541667 4.16666667 10 8.82083333 5.34583333 4.16666667 4.16666667 5.34583333 8.82083333 10 4.16666667 14.6541667 5.34583333 15.8333333 10 11.1791667 14.6541667 15.8333333 15.8333333 14.6541667 11.1791667 10"></polygon>
                    <polygon id="Shape" points="0 0 20 0 20 20 0 20"></polygon>
                </g>
            </g>
            <g id="Group-10" transform="translate(140.000000, 120.000000)">
                <path d="M16.5,3.5 L16.5,16.5 L3.5,16.5 L3.5,3.5 L16.5,3.5 L16.5,3.5 Z M16.2222222,2 L3.77777778,2 C2.8,2 2,2.8 2,3.77777778 L2,16.2222222 C2,17.2 2.8,18 3.77777778,18 L16.2222222,18 C17.2,18 18,17.2 18,16.2222222 L18,3.77777778 C18,2.8 17.2,2 16.2222222,2 L16.2222222,2 L16.2222222,2 Z" id="Shape" fill="#CDCDCD" opacity="0.54"></path>
                <rect id="Rectangle-8" x="0" y="0" width="20" height="20"></rect>
            </g>
            <g id="Group-9" transform="translate(120.000000, 120.000000)">
                <rect id="Rectangle-7" x="0" y="0" width="20" height="20"></rect>
                <path d="M16.2222222,2 L3.77777778,2 C2.8,2 2,2.8 2,3.77777778 L2,16.2222222 C2,17.2 2.8,18 3.77777778,18 L16.2222222,18 C17.2,18 18,17.2 18,16.2222222 L18,3.77777778 C18,2.8 17.2,2 16.2222222,2 L16.2222222,2 Z M8.22222222,14.4444444 L3.77777778,10.1709402 L5.02222222,8.97435897 L8.22222222,12.0512821 L14.9777778,5.55555556 L16.2222222,6.75213675 L8.22222222,14.4444444 L8.22222222,14.4444444 Z" id="Shape" fill="#222222"></path>
            </g>
            <g id="Group-6" transform="translate(100.000000, 120.000000)">
                <rect id="Rectangle-6" x="0" y="0" width="20" height="20"></rect>
                <path d="M10,2 C5.6,2 2,5.6 2,10 C2,14.4 5.6,18 10,18 C14.4,18 18,14.4 18,10 C18,5.6 14.4,2 10,2 L10,2 Z M10,16.4 C6.48,16.4 3.6,13.52 3.6,10 C3.6,6.48 6.48,3.6 10,3.6 C13.52,3.6 16.4,6.48 16.4,10 C16.4,13.52 13.52,16.4 10,16.4 L10,16.4 Z" id="Shape" fill="#CDCDCD" opacity="0.54"></path>
            </g>
            <g id="Group-5" transform="translate(80.000000, 120.000000)">
                <path d="M10,6 C7.76,6 6,7.76 6,10 C6,12.24 7.76,14 10,14 C12.24,14 14,12.24 14,10 C14,7.76 12.24,6 10,6 L10,6 Z M10,2 C5.6,2 2,5.6 2,10 C2,14.4 5.6,18 10,18 C14.4,18 18,14.4 18,10 C18,5.6 14.4,2 10,2 L10,2 Z M10,16.4 C6.48,16.4 3.6,13.52 3.6,10 C3.6,6.48 6.48,3.6 10,3.6 C13.52,3.6 16.4,6.48 16.4,10 C16.4,13.52 13.52,16.4 10,16.4 L10,16.4 Z" id="Shape" fill="#222222"></path>
                <rect id="Rectangle-5" x="0" y="0" width="20" height="20"></rect>
            </g>
            <g id="ic-first-page-48-px" transform="translate(330.000000, 90.000000)">
                <g id="Group">
                    <path d="M23.0125,20.7375 L17.275,15 L23.0125,9.2625 L21.25,7.5 L13.75,15 L21.25,22.5 L23.0125,20.7375 Z M7.5,7.5 L10,7.5 L10,22.5 L7.5,22.5 L7.5,7.5 Z" id="Shape" fill="#000000"></path>
                    <polygon id="Shape" points="30 30 0 30 0 0 30 0"></polygon>
                </g>
            </g>
            <g id="ic-get-app-48-px" transform="translate(160.000000, 120.000000)">
                <g id="Group">
                    <polygon id="Shape" points="0 0 20 0 20 20 0 20"></polygon>
                    <path d="M14.9411765,7.93529424 L12.1176471,7.93529424 L12.1176471,3.70000013 L7.88235294,3.70000013 L7.88235294,7.93529424 L5.05882353,7.93529424 L10,12.8764707 L14.9411765,7.93529424 L14.9411765,7.93529424 Z M5.05882353,14.2882354 L5.05882353,15.7000001 L14.9411765,15.7000001 L14.9411765,14.2882354 L5.05882353,14.2882354 L5.05882353,14.2882354 Z" id="Shape" fill="#222222"></path>
                </g>
            </g>
            <g id="ic-link-48-px" transform="translate(180.000000, 120.000000)">
                <g id="Group">
                    <polygon id="Shape" points="0 0 20 0 20 20 0 20"></polygon>
                    <path d="M3.25,10 C3.25,8.575 4.40833333,7.41666667 5.83333333,7.41666667 L9.16666667,7.41666667 L9.16666667,5.83333333 L5.83333333,5.83333333 C3.53333333,5.83333333 1.66666667,7.7 1.66666667,10 C1.66666667,12.3 3.53333333,14.1666667 5.83333333,14.1666667 L9.16666667,14.1666667 L9.16666667,12.5833333 L5.83333333,12.5833333 C4.40833333,12.5833333 3.25,11.425 3.25,10 Z M6.66666667,10.8333333 L13.3333333,10.8333333 L13.3333333,9.16666667 L6.66666667,9.16666667 L6.66666667,10.8333333 Z M14.1666667,5.83333333 L10.8333333,5.83333333 L10.8333333,7.41666667 L14.1666667,7.41666667 C15.5916667,7.41666667 16.75,8.575 16.75,10 C16.75,11.425 15.5916667,12.5833333 14.1666667,12.5833333 L10.8333333,12.5833333 L10.8333333,14.1666667 L14.1666667,14.1666667 C16.4666667,14.1666667 18.3333333,12.3 18.3333333,10 C18.3333333,7.7 16.4666667,5.83333333 14.1666667,5.83333333 Z" id="Shape" fill="#000000"></path>
                </g>
            </g>
        </g>
    </g>
</svg>