<?xml version="1.0" encoding="UTF-8"?>
<svg width="390px" height="200px" viewBox="0 0 390 200" version="1.1" xmlns="http://www.w3.org/2000/svg" xmlns:xlink="http://www.w3.org/1999/xlink">
    <!-- Generator: Sketch 41.2 (35397) - http://www.bohemiancoding.com/sketch -->
    <title>svg_sprite</title>
    <desc>Created with Sketch.</desc>
    <defs>
        <polygon id="path-1" points="0 0 20 0 20 20 0 20"></polygon>
        <rect id="path-3" x="0" y="0" width="20" height="14"></rect>
        <rect id="path-5" x="0" y="0" width="20" height="14"></rect>
        <linearGradient x1="50%" y1="0%" x2="50%" y2="100%" id="linearGradient-7">
            <stop stop-color="#FFFFFF" offset="0%"></stop>
            <stop stop-color="#F0F0F0" offset="100%"></stop>
        </linearGradient>
        <path d="M1.4,1.86666667 C1.65773288,1.86666667 1.86666667,1.65773288 1.86666667,1.4 C1.86666667,1.14226712 1.65773288,0.933333333 1.4,0.933333333 C1.14226712,0.933333333 0.933333333,1.14226712 0.933333333,1.4 C0.933333333,1.65773288 1.14226712,1.86666667 1.4,1.86666667 Z M3.26666667,1.86666667 C3.52439955,1.86666667 3.73333333,1.65773288 3.73333333,1.4 C3.73333333,1.14226712 3.52439955,0.933333333 3.26666667,0.933333333 C3.00893378,0.933333333 2.8,1.14226712 2.8,1.4 C2.8,1.65773288 3.00893378,1.86666667 3.26666667,1.86666667 Z M5.13333333,1.86666667 C5.39106622,1.86666667 5.6,1.65773288 5.6,1.4 C5.6,1.14226712 5.39106622,0.933333333 5.13333333,0.933333333 C4.87560045,0.933333333 4.66666667,1.14226712 4.66666667,1.4 C4.66666667,1.65773288 4.87560045,1.86666667 5.13333333,1.86666667 Z M7,1.86666667 C7.25773288,1.86666667 7.46666667,1.65773288 7.46666667,1.4 C7.46666667,1.14226712 7.25773288,0.933333333 7,0.933333333 C6.74226712,0.933333333 6.53333333,1.14226712 6.53333333,1.4 C6.53333333,1.65773288 6.74226712,1.86666667 7,1.86666667 Z M2.33333333,2.8 C2.59106622,2.8 2.8,2.59106622 2.8,2.33333333 C2.8,2.07560045 2.59106622,1.86666667 2.33333333,1.86666667 C2.07560045,1.86666667 1.86666667,2.07560045 1.86666667,2.33333333 C1.86666667,2.59106622 2.07560045,2.8 2.33333333,2.8 Z M4.2,2.8 C4.45773288,2.8 4.66666667,2.59106622 4.66666667,2.33333333 C4.66666667,2.07560045 4.45773288,1.86666667 4.2,1.86666667 C3.94226712,1.86666667 3.73333333,2.07560045 3.73333333,2.33333333 C3.73333333,2.59106622 3.94226712,2.8 4.2,2.8 Z M6.06666667,2.8 C6.32439955,2.8 6.53333333,2.59106622 6.53333333,2.33333333 C6.53333333,2.07560045 6.32439955,1.86666667 6.06666667,1.86666667 C5.80893378,1.86666667 5.6,2.07560045 5.6,2.33333333 C5.6,2.59106622 5.80893378,2.8 6.06666667,2.8 Z M7,3.73333333 C7.25773288,3.73333333 7.46666667,3.52439955 7.46666667,3.26666667 C7.46666667,3.00893378 7.25773288,2.8 7,2.8 C6.74226712,2.8 6.53333333,3.00893378 6.53333333,3.26666667 C6.53333333,3.52439955 6.74226712,3.73333333 7,3.73333333 Z M5.13333333,3.73333333 C5.39106622,3.73333333 5.6,3.52439955 5.6,3.26666667 C5.6,3.00893378 5.39106622,2.8 5.13333333,2.8 C4.87560045,2.8 4.66666667,3.00893378 4.66666667,3.26666667 C4.66666667,3.52439955 4.87560045,3.73333333 5.13333333,3.73333333 Z M3.26666667,3.73333333 C3.52439955,3.73333333 3.73333333,3.52439955 3.73333333,3.26666667 C3.73333333,3.00893378 3.52439955,2.8 3.26666667,2.8 C3.00893378,2.8 2.8,3.00893378 2.8,3.26666667 C2.8,3.52439955 3.00893378,3.73333333 3.26666667,3.73333333 Z M1.4,3.73333333 C1.65773288,3.73333333 1.86666667,3.52439955 1.86666667,3.26666667 C1.86666667,3.00893378 1.65773288,2.8 1.4,2.8 C1.14226712,2.8 0.933333333,3.00893378 0.933333333,3.26666667 C0.933333333,3.52439955 1.14226712,3.73333333 1.4,3.73333333 Z M2.33333333,4.66666667 C2.59106622,4.66666667 2.8,4.45773288 2.8,4.2 C2.8,3.94226712 2.59106622,3.73333333 2.33333333,3.73333333 C2.07560045,3.73333333 1.86666667,3.94226712 1.86666667,4.2 C1.86666667,4.45773288 2.07560045,4.66666667 2.33333333,4.66666667 Z M4.2,4.66666667 C4.45773288,4.66666667 4.66666667,4.45773288 4.66666667,4.2 C4.66666667,3.94226712 4.45773288,3.73333333 4.2,3.73333333 C3.94226712,3.73333333 3.73333333,3.94226712 3.73333333,4.2 C3.73333333,4.45773288 3.94226712,4.66666667 4.2,4.66666667 Z M6.06666667,4.66666667 C6.32439955,4.66666667 6.53333333,4.45773288 6.53333333,4.2 C6.53333333,3.94226712 6.32439955,3.73333333 6.06666667,3.73333333 C5.80893378,3.73333333 5.6,3.94226712 5.6,4.2 C5.6,4.45773288 5.80893378,4.66666667 6.06666667,4.66666667 Z M7,5.6 C7.25773288,5.6 7.46666667,5.39106622 7.46666667,5.13333333 C7.46666667,4.87560045 7.25773288,4.66666667 7,4.66666667 C6.74226712,4.66666667 6.53333333,4.87560045 6.53333333,5.13333333 C6.53333333,5.39106622 6.74226712,5.6 7,5.6 Z M5.13333333,5.6 C5.39106622,5.6 5.6,5.39106622 5.6,5.13333333 C5.6,4.87560045 5.39106622,4.66666667 5.13333333,4.66666667 C4.87560045,4.66666667 4.66666667,4.87560045 4.66666667,5.13333333 C4.66666667,5.39106622 4.87560045,5.6 5.13333333,5.6 Z M3.26666667,5.6 C3.52439955,5.6 3.73333333,5.39106622 3.73333333,5.13333333 C3.73333333,4.87560045 3.52439955,4.66666667 3.26666667,4.66666667 C3.00893378,4.66666667 2.8,4.87560045 2.8,5.13333333 C2.8,5.39106622 3.00893378,5.6 3.26666667,5.6 Z M1.4,5.6 C1.65773288,5.6 1.86666667,5.39106622 1.86666667,5.13333333 C1.86666667,4.87560045 1.65773288,4.66666667 1.4,4.66666667 C1.14226712,4.66666667 0.933333333,4.87560045 0.933333333,5.13333333 C0.933333333,5.39106622 1.14226712,5.6 1.4,5.6 Z" id="path-8"></path>
        <filter x="-50%" y="-50%" width="200%" height="200%" filterUnits="objectBoundingBox" id="filter-9">
            <feOffset dx="0" dy="1" in="SourceAlpha" result="shadowOffsetOuter1"></feOffset>
            <feColorMatrix values="0 0 0 0 0   0 0 0 0 0   0 0 0 0 0  0 0 0 0.06 0" type="matrix" in="shadowOffsetOuter1"></feColorMatrix>
        </filter>
        <rect id="path-10" x="0" y="0" width="20" height="14"></rect>
        <linearGradient x1="50%" y1="0%" x2="50%" y2="100%" id="linearGradient-12">
            <stop stop-color="#D91441" offset="0%"></stop>
            <stop stop-color="#BB0831" offset="100%"></stop>
        </linearGradient>
    </defs>
    <g id="icon" stroke="none" stroke-width="1" fill="none" fill-rule="evenodd">
        <g id="svg_sprite">
            <g id="ic-account-circle-48-px" transform="translate(180.000000, 90.000000)">
                <g id="Group">
                    <polygon id="Shape" points="0 0 30 0 30 30 0 30"></polygon>
                    <path d="M15,0 C6.7125,0 0,6.7125 0,15 C0,23.2875 6.7125,30 15,30 C23.2875,30 30,23.2875 30,15 C30,6.7125 23.2875,0 15,0 L15,0 Z M15,4.5 C17.4825,4.5 19.5,6.5175 19.5,9 C19.5,11.49 17.4825,13.5 15,13.5 C12.5175,13.5 10.5,11.49 10.5,9 C10.5,6.5175 12.5175,4.5 15,4.5 L15,4.5 Z M15,25.8 C11.2425,25.8 7.9425,23.88 6,20.97 C6.0375,17.9925 12.0075,16.35 15,16.35 C17.9925,16.35 23.955,17.9925 24,20.97 C22.0575,23.88 18.7575,25.8 15,25.8 L15,25.8 Z" id="Shape" fill="#222222"></path>
                </g>
            </g>
            <g id="ic-done-48-px" transform="translate(40.000000, 150.000000)">
                <g id="Group">
                    <polygon id="Shape" points="0 0 20 0 20 20 0 20"></polygon>
                    <polygon id="Shape" fill="#222222" points="7.5 13.475 4.025 10 2.84583333 11.1791667 7.5 15.8333333 17.5 5.83333333 16.3208333 4.65416667"></polygon>
                </g>
            </g>
            <g id="ic-favorite-border-48-px" transform="translate(20.000000, 150.000000)">
                <g id="Group">
                    <polygon id="Shape" points="0 0 20 0 20 20 0 20"></polygon>
                    <path d="M13.75,2.5 C12.3,2.5 10.9083333,3.175 10,4.2375 C9.09166667,3.175 7.7,2.5 6.25,2.5 C3.67916667,2.5 1.66666667,4.5125 1.66666667,7.08333333 C1.66666667,10.2291667 4.5,12.8 8.79166667,16.6958333 L10,17.7916667 L11.2083333,16.6958333 C15.5,12.8 18.3333333,10.2291667 18.3333333,7.08333333 C18.3333333,4.5125 16.3208333,2.5 13.75,2.5 L13.75,2.5 Z M10.0875,15.4625 L10,15.5416667 L9.9125,15.4625 C5.95,11.8666667 3.33333333,9.49166667 3.33333333,7.08333333 C3.33333333,5.42083333 4.5875,4.16666667 6.25,4.16666667 C7.53333333,4.16666667 8.78333333,4.99583333 9.22083333,6.13333333 L10.775,6.13333333 C11.2166667,4.99583333 12.4666667,4.16666667 13.75,4.16666667 C15.4125,4.16666667 16.6666667,5.42083333 16.6666667,7.08333333 C16.6666667,9.49166667 14.05,11.8666667 10.0875,15.4625 L10.0875,15.4625 Z" id="Shape" fill="#222222"></path>
                </g>
            </g>
            <g id="ic-lightbulb-outline-48-px" transform="translate(0.000000, 150.000000)">
                <g id="Clipped">
                    <mask id="mask-2" fill="white">
                        <use xlink:href="#path-1"></use>
                    </mask>
                    <g id="a"></g>
                    <path d="M7.5,17.5 C7.5,17.9583333 7.875,18.3333333 8.33333333,18.3333333 L11.6666667,18.3333333 C12.125,18.3333333 12.5,17.9583333 12.5,17.5 L12.5,16.6666667 L7.5,16.6666667 L7.5,17.5 L7.5,17.5 Z M10,1.66666667 C6.77916667,1.66666667 4.16666667,4.27916667 4.16666667,7.5 C4.16666667,9.48333333 5.15833333,11.2291667 6.66666667,12.2833333 L6.66666667,14.1666667 C6.66666667,14.625 7.04166667,15 7.5,15 L12.5,15 C12.9583333,15 13.3333333,14.625 13.3333333,14.1666667 L13.3333333,12.2833333 C14.8416667,11.2291667 15.8333333,9.48333333 15.8333333,7.5 C15.8333333,4.27916667 13.2208333,1.66666667 10,1.66666667 L10,1.66666667 Z M12.3791667,10.9166667 L11.6666667,11.4125 L11.6666667,13.3333333 L8.33333333,13.3333333 L8.33333333,11.4166667 L7.62083333,10.9208333 C6.5,10.1375 5.83333333,8.8625 5.83333333,7.50416667 C5.83333333,5.20833333 7.70416667,3.3375 10,3.3375 C12.2958333,3.3375 14.1666667,5.20833333 14.1666667,7.50416667 C14.1666667,8.85833333 13.5,10.1333333 12.3791667,10.9166667 L12.3791667,10.9166667 Z" id="Shape" fill="#222222" mask="url(#mask-2)"></path>
                </g>
            </g>
            <g id="ic-clear-48-px" transform="translate(0.000000, 50.000000)">
                <g id="Group">
                    <polygon id="Shape" fill="#222222" points="31.6666667 10.6916667 29.3083333 8.33333333 20 17.6416667 10.6916667 8.33333333 8.33333333 10.6916667 17.6416667 20 8.33333333 29.3083333 10.6916667 31.6666667 20 22.3583333 29.3083333 31.6666667 31.6666667 29.3083333 22.3583333 20"></polygon>
                    <polygon id="Shape" points="0 0 40 0 40 40 0 40"></polygon>
                </g>
            </g>
            <g id="ic-clear-48-px-copy" transform="translate(300.000000, 120.000000)">
                <g id="Group">
                    <polygon id="Shape" fill="#222222" points="23.75 8.01875 21.98125 6.25 15 13.23125 8.01875 6.25 6.25 8.01875 13.23125 15 6.25 21.98125 8.01875 23.75 15 16.76875 21.98125 23.75 23.75 21.98125 16.76875 15"></polygon>
                    <polygon id="Shape" points="0 0 30 0 30 30 0 30"></polygon>
                </g>
            </g>
            <g id="icon-prev">
                <g id="Assets">
                    <g>
                        <g id="Web-assets">
                            <polygon id="prev" fill="#222222" transform="translate(11.627907, 25.000000) scale(-1, 1) translate(-11.627907, -25.000000) " points="23.255814 25.5813953 1.1627907 50 0 48.8372093 20.9302326 25.5813953 0 1.1627907 1.1627907 0"></polygon>
                            <rect id="Rectangle" x="0" y="0" width="30" height="50"></rect>
                        </g>
                    </g>
                </g>
            </g>
            <g id="icon-prev" transform="translate(45.000000, 25.000000) rotate(-180.000000) translate(-45.000000, -25.000000) translate(30.000000, 0.000000)">
                <g id="Assets">
                    <g>
                        <g id="Web-assets">
                            <polygon id="prev" fill="#222222" transform="translate(11.627907, 25.000000) scale(-1, 1) translate(-11.627907, -25.000000) " points="23.255814 25.5813953 1.1627907 50 -5.68434189e-14 48.8372093 20.9302326 25.5813953 -5.68434189e-14 1.1627907 1.1627907 0"></polygon>
                            <rect id="Rectangle-2" x="0" y="0" width="30" height="50"></rect>
                        </g>
                    </g>
                </g>
            </g>
            <g id="ic-clear-all-48-px" transform="translate(0.000000, 90.000000)">
                <g id="Group">
                    <polygon id="Shape" points="0 0 30 0 30 30 0 30"></polygon>
                    <path d="M21,17 L19,17 L19,19 L21,19 L21,25 L23,25 L23,19 L25,19 L25,17 L23,17 L23,5 L21,5 L21,17 Z M14.0026667,11 L12.0026667,11 L12.0026667,13 L14.0026667,13 L14.0026667,25 L16.0026667,25 L16.0026667,13 L18.0026667,13 L18.0026667,11 L16.0026667,11 L16.0026667,5 L14.0026667,5 L14.0026667,11 Z M7,19 L5,19 L5,21 L7,21 L7,25 L9,25 L9,21 L11,21 L11,19 L9,19 L9,5 L7,5 L7,19 Z" id="Combined-Shape" fill="#222222"></path>
                </g>
            </g>
            <g id="Group-8" transform="translate(90.000000, 90.000000)">
                <polygon id="Shape" points="0 0 30 0 30 30 0 30"></polygon>
                <path d="M5,10 L10,10 L10,5 L5,5 L5,10 L5,10 Z M12.5,25 L17.5,25 L17.5,20 L12.5,20 L12.5,25 L12.5,25 Z M5,25 L10,25 L10,20 L5,20 L5,25 L5,25 Z M5,17.5 L10,17.5 L10,12.5 L5,12.5 L5,17.5 L5,17.5 Z M12.5,17.5 L17.5,17.5 L17.5,12.5 L12.5,12.5 L12.5,17.5 L12.5,17.5 Z M20,5 L20,10 L25,10 L25,5 L20,5 L20,5 Z M12.5,10 L17.5,10 L17.5,5 L12.5,5 L12.5,10 L12.5,10 Z M20,17.5 L25,17.5 L25,12.5 L20,12.5 L20,17.5 L20,17.5 Z M20,25 L25,25 L25,20 L20,20 L20,25 L20,25 Z" id="Shape" fill="#222222"></path>
            </g>
            <g id="Group-7" transform="translate(60.000000, 90.000000)">
                <polygon id="Shape" points="0 0 30 0 30 30 0 30"></polygon>
                <path d="M5,13 L13,13 L13,5 L5,5 L5,13 L5,13 Z M5,25 L13,25 L13,17 L5,17 L5,25 L5,25 Z M17,25 L25,25 L25,17 L17,17 L17,25 L17,25 Z M17,13 L25,13 L25,5 L17,5 L17,13 L17,13 Z" id="Shape" fill="#222222"></path>
            </g>
            <g id="ic-fullscreen-48-px" transform="translate(0.000000, 120.000000)">
                <g id="Group">
                    <polygon id="Shape" points="0 0 30 0 30 30 0 30"></polygon>
                    <path d="M8.75,17.5 L6.25,17.5 L6.25,23.75 L12.5,23.75 L12.5,21.25 L8.75,21.25 L8.75,17.5 L8.75,17.5 Z M6.25,12.5 L8.75,12.5 L8.75,8.75 L12.5,8.75 L12.5,6.25 L6.25,6.25 L6.25,12.5 L6.25,12.5 Z M21.25,21.25 L17.5,21.25 L17.5,23.75 L23.75,23.75 L23.75,17.5 L21.25,17.5 L21.25,21.25 L21.25,21.25 Z M17.5,6.25 L17.5,8.75 L21.25,8.75 L21.25,12.5 L23.75,12.5 L23.75,6.25 L17.5,6.25 L17.5,6.25 Z" id="Shape" fill="#222222"></path>
                </g>
            </g>
            <g id="ic-get-app-48-px" transform="translate(270.000000, 120.000000)">
                <g id="Group">
                    <polygon id="Shape" points="0 0 30 0 30 30 0 30"></polygon>
                    <path d="M22.4117647,11.9029414 L18.1764706,11.9029414 L18.1764706,5.55000019 L11.8235294,5.55000019 L11.8235294,11.9029414 L7.58823529,11.9029414 L15,19.3147061 L22.4117647,11.9029414 L22.4117647,11.9029414 Z M7.58823529,21.4323531 L7.58823529,23.5500002 L22.4117647,23.5500002 L22.4117647,21.4323531 L7.58823529,21.4323531 L7.58823529,21.4323531 Z" id="Shape" fill="#222222"></path>
                </g>
            </g>
            <g id="ic-search-48-px" transform="translate(30.000000, 90.000000)">
                <g id="Group">
                    <path d="M19.375,17.5 L18.38125,17.5 L18.0375,17.15625 C19.2625,15.7375 20,13.89375 20,11.875 C20,7.3875 16.3625,3.75 11.875,3.75 C7.3875,3.75 3.75,7.3875 3.75,11.875 C3.75,16.3625 7.3875,20 11.875,20 C13.89375,20 15.7375,19.2625 17.15625,18.04375 L17.5,18.3875 L17.5,19.375 L23.75,25.6125 L25.6125,23.75 L19.375,17.5 L19.375,17.5 Z M11.875,17.5 C8.76875,17.5 6.25,14.98125 6.25,11.875 C6.25,8.76875 8.76875,6.25 11.875,6.25 C14.98125,6.25 17.5,8.76875 17.5,11.875 C17.5,14.98125 14.98125,17.5 11.875,17.5 L11.875,17.5 Z" id="Shape" fill="#222222"></path>
                    <polygon id="Shape" points="0 0 30 0 30 30 0 30"></polygon>
                </g>
            </g>
            <g id="ic-keyboard-arrow-down-48-px" transform="translate(300.000000, 90.000000)">
                <g id="Group">
                    <polygon id="Shape" fill="#222222" points="9.26875 13.6653061 15 19.2795918 20.73125 13.6653061 22.5 15.3979592 15 22.744898 7.5 15.3979592"></polygon>
                    <polygon id="Shape" points="0 0 30 0 30 29.3877551 0 29.3877551"></polygon>
                </g>
            </g>
            <g id="ic-keyboard-arrow-down-48-px-copy" transform="translate(345.000000, 105.000000) rotate(-180.000000) translate(-345.000000, -105.000000) translate(330.000000, 90.000000)">
                <g id="Group">
                    <polygon id="Shape" fill="#222222" points="9.26875 13.6653061 15 19.2795918 20.73125 13.6653061 22.5 15.3979592 15 22.744898 7.5 15.3979592"></polygon>
                    <polygon id="Shape" points="0 0 30 0 30 29.3877551 0 29.3877551"></polygon>
                </g>
            </g>
            <g id="Group-2" transform="translate(210.000000, 90.000000)">
                <path d="M24.9644349,11.096925 L22.0721722,6.27477173 C21.8971955,5.98657473 21.5832666,5.80645161 21.2436059,5.80645161 L9.66426237,5.80645161 C9.32460163,5.80645161 9.01067276,5.98657473 8.83569601,6.27477173 L5.94343332,11.096925 C5.74787108,11.4211466 5.7633102,11.8328566 5.97945795,12.1416391 L14.6613924,24.6833547 C14.8415155,24.9458198 15.1400053,25.1002111 15.4539341,25.1002111 C15.7730094,25.1002111 16.0663527,24.9458198 16.2464759,24.6833547 L24.9284103,12.1416391 C25.1497044,11.8277102 25.1599972,11.4211466 24.9644349,11.096925 L24.9644349,11.096925 Z M10.2097781,7.73119582 L20.6980901,7.73119582 L22.4324185,10.6234585 L8.47544977,10.6234585 L10.2097781,7.73119582 L10.2097781,7.73119582 Z M15.4539341,22.4395353 L8.60925552,12.5584955 L22.2986127,12.5584955 L15.4539341,22.4395353 L15.4539341,22.4395353 Z" id="Shape" fill="#222222"></path>
                <rect id="Rectangle-3" x="0" y="0" width="30" height="30"></rect>
            </g>
            <g id="Group-4" transform="translate(270.000000, 90.000000)">
                <path d="M24.9361702,16.0691489 C24.9734043,15.7978723 24.893617,15.5212766 24.7180851,15.3085106 L20.6702128,10.356383 L21.0053191,9.65425532 C21.2446809,9.15957447 21.0319149,8.56382979 20.537234,8.32446809 L14.2446809,5.31382979 C14.0425532,5.21808511 13.8244681,5.21276596 13.6223404,5.25 C13.4468085,5.10106383 13.2287234,5 12.9787234,5 L5.99468085,5 C5.44148936,5 5,5.44680851 5,5.99468085 L5,23.9468085 C5,24.5 5.44680851,24.9414894 5.99468085,24.9414894 L12.9734043,24.9414894 L12.9734043,24.9414894 L12.9734043,24.9414894 C12.9893617,24.9414894 13.0053191,24.9361702 13.0212766,24.9361702 C13.0319149,24.9361702 13.0425532,24.9414894 13.0531915,24.9414894 C13.356383,24.9414894 13.643617,24.7978723 13.8351064,24.5478723 L24.5319149,16.7446809 C24.7606383,16.5851064 24.9042553,16.3404255 24.9361702,16.0691489 L24.9361702,16.0691489 Z M18.7819149,9.69680851 L13.9787234,19.7287234 L13.9787234,7.39361702 L18.7819149,9.69680851 L18.7819149,9.69680851 Z M11.9787234,22.9521277 L6.99468085,22.9521277 L6.99468085,6.99468085 L11.9787234,6.99468085 L11.9787234,22.9521277 L11.9787234,22.9521277 Z M15.712766,20.7180851 L19.7234043,12.3457447 L22.5106383,15.7553191 L15.712766,20.7180851 Z M9.4893617,21.9521277 C10.3148511,21.9521277 10.9840426,21.2829362 10.9840426,20.4574468 C10.9840426,19.6319574 10.3148511,18.962766 9.4893617,18.962766 C8.66387226,18.962766 7.99468085,19.6319574 7.99468085,20.4574468 C7.99468085,21.2829362 8.66387226,21.9521277 9.4893617,21.9521277 Z" id="Combined-Shape" fill="#222222"></path>
                <rect id="Rectangle-4" x="0" y="0" width="30" height="30"></rect>
            </g>
            <g id="Group-3" transform="translate(240.000000, 90.000000)">
                <path d="M23.1968085,6.75132979 C20.8617021,4.4162234 17.0638298,4.4162234 14.7340426,6.75132979 L5.87765957,15.6077128 C4.70744681,16.7726064 4.70744681,18.6715426 5.87765957,19.8417553 L10.1117021,24.0757979 C11.2765957,25.2406915 13.1755319,25.2406915 14.3457447,24.0757979 L23.2021277,15.2194149 C25.5319149,12.8843085 25.5319149,9.08643617 23.1968085,6.75132979 L23.1968085,6.75132979 Z M21.787234,13.8045213 L12.9308511,22.6609043 C12.5425532,23.0492021 11.9095745,23.0492021 11.5212766,22.6609043 L7.28723404,18.4321809 C6.89893617,18.043883 6.89893617,17.4109043 7.28723404,17.0226064 L16.143617,8.16090426 C17.6968085,6.60771277 20.2287234,6.60771277 21.787234,8.16090426 C23.3404255,9.71941489 23.3404255,12.2513298 21.787234,13.8045213 Z M19.643617,11.3031915 C20.1959018,11.3031915 20.643617,10.8554762 20.643617,10.3031915 C20.643617,9.75090674 20.1959018,9.30319149 19.643617,9.30319149 C19.0913323,9.30319149 18.643617,9.75090674 18.643617,10.3031915 C18.643617,10.8554762 19.0913323,11.3031915 19.643617,11.3031915 Z" id="Combined-Shape" fill="#222222"></path>
                <rect id="Rectangle-3" x="0" y="0" width="30" height="30"></rect>
            </g>
            <g id="ic-clear-48-px" transform="translate(60.000000, 150.000000)">
                <g id="Group">
                    <polygon id="Shape" fill="#222222" points="15.8333333 5.34583333 14.6541667 4.16666667 10 8.82083333 5.34583333 4.16666667 4.16666667 5.34583333 8.82083333 10 4.16666667 14.6541667 5.34583333 15.8333333 10 11.1791667 14.6541667 15.8333333 15.8333333 14.6541667 11.1791667 10"></polygon>
                    <polygon id="Shape" points="0 0 20 0 20 20 0 20"></polygon>
                </g>
            </g>
            <g id="Group-10" transform="translate(140.000000, 150.000000)">
                <path d="M16.5,3.5 L16.5,16.5 L3.5,16.5 L3.5,3.5 L16.5,3.5 L16.5,3.5 Z M16.2222222,2 L3.77777778,2 C2.8,2 2,2.8 2,3.77777778 L2,16.2222222 C2,17.2 2.8,18 3.77777778,18 L16.2222222,18 C17.2,18 18,17.2 18,16.2222222 L18,3.77777778 C18,2.8 17.2,2 16.2222222,2 L16.2222222,2 L16.2222222,2 Z" id="Shape" fill="#CDCDCD" opacity="0.54"></path>
                <rect id="Rectangle-8" x="0" y="0" width="20" height="20"></rect>
            </g>
            <g id="Group-9" transform="translate(120.000000, 150.000000)">
                <rect id="Rectangle-7" x="0" y="0" width="20" height="20"></rect>
                <path d="M16.2222222,2 L3.77777778,2 C2.8,2 2,2.8 2,3.77777778 L2,16.2222222 C2,17.2 2.8,18 3.77777778,18 L16.2222222,18 C17.2,18 18,17.2 18,16.2222222 L18,3.77777778 C18,2.8 17.2,2 16.2222222,2 L16.2222222,2 Z M8.22222222,14.4444444 L3.77777778,10.1709402 L5.02222222,8.97435897 L8.22222222,12.0512821 L14.9777778,5.55555556 L16.2222222,6.75213675 L8.22222222,14.4444444 L8.22222222,14.4444444 Z" id="Shape" fill="#222222"></path>
            </g>
            <g id="Group-6" transform="translate(100.000000, 150.000000)">
                <rect id="Rectangle-6" x="0" y="0" width="20" height="20"></rect>
                <path d="M10,2 C5.6,2 2,5.6 2,10 C2,14.4 5.6,18 10,18 C14.4,18 18,14.4 18,10 C18,5.6 14.4,2 10,2 L10,2 Z M10,16.4 C6.48,16.4 3.6,13.52 3.6,10 C3.6,6.48 6.48,3.6 10,3.6 C13.52,3.6 16.4,6.48 16.4,10 C16.4,13.52 13.52,16.4 10,16.4 L10,16.4 Z" id="Shape" fill="#CDCDCD" opacity="0.54"></path>
            </g>
            <g id="Group-5" transform="translate(80.000000, 150.000000)">
                <path d="M10,6 C7.76,6 6,7.76 6,10 C6,12.24 7.76,14 10,14 C12.24,14 14,12.24 14,10 C14,7.76 12.24,6 10,6 L10,6 Z M10,2 C5.6,2 2,5.6 2,10 C2,14.4 5.6,18 10,18 C14.4,18 18,14.4 18,10 C18,5.6 14.4,2 10,2 L10,2 Z M10,16.4 C6.48,16.4 3.6,13.52 3.6,10 C3.6,6.48 6.48,3.6 10,3.6 C13.52,3.6 16.4,6.48 16.4,10 C16.4,13.52 13.52,16.4 10,16.4 L10,16.4 Z" id="Shape" fill="#222222"></path>
                <rect id="Rectangle-5" x="0" y="0" width="20" height="20"></rect>
            </g>
            <g id="ic-first-page-48-px" transform="translate(330.000000, 120.000000)">
                <g id="Group">
                    <path d="M23.0125,20.7375 L17.275,15 L23.0125,9.2625 L21.25,7.5 L13.75,15 L21.25,22.5 L23.0125,20.7375 Z M7.5,7.5 L10,7.5 L10,22.5 L7.5,22.5 L7.5,7.5 Z" id="Shape" fill="#000000"></path>
                    <polygon id="Shape" points="30 30 0 30 0 0 30 0"></polygon>
                </g>
            </g>
            <g id="ic-get-app-48-px" transform="translate(160.000000, 150.000000)">
                <g id="Group">
                    <polygon id="Shape" points="0 0 20 0 20 20 0 20"></polygon>
                    <path d="M14.9411765,7.93529424 L12.1176471,7.93529424 L12.1176471,3.70000013 L7.88235294,3.70000013 L7.88235294,7.93529424 L5.05882353,7.93529424 L10,12.8764707 L14.9411765,7.93529424 L14.9411765,7.93529424 Z M5.05882353,14.2882354 L5.05882353,15.7000001 L14.9411765,15.7000001 L14.9411765,14.2882354 L5.05882353,14.2882354 L5.05882353,14.2882354 Z" id="Shape" fill="#222222"></path>
                </g>
            </g>
            <g id="ic-link-48-px" transform="translate(180.000000, 150.000000)">
                <g id="Group">
                    <polygon id="Shape" points="0 0 20 0 20 20 0 20"></polygon>
                    <path d="M3.25,10 C3.25,8.575 4.40833333,7.41666667 5.83333333,7.41666667 L9.16666667,7.41666667 L9.16666667,5.83333333 L5.83333333,5.83333333 C3.53333333,5.83333333 1.66666667,7.7 1.66666667,10 C1.66666667,12.3 3.53333333,14.1666667 5.83333333,14.1666667 L9.16666667,14.1666667 L9.16666667,12.5833333 L5.83333333,12.5833333 C4.40833333,12.5833333 3.25,11.425 3.25,10 Z M6.66666667,10.8333333 L13.3333333,10.8333333 L13.3333333,9.16666667 L6.66666667,9.16666667 L6.66666667,10.8333333 Z M14.1666667,5.83333333 L10.8333333,5.83333333 L10.8333333,7.41666667 L14.1666667,7.41666667 C15.5916667,7.41666667 16.75,8.575 16.75,10 C16.75,11.425 15.5916667,12.5833333 14.1666667,12.5833333 L10.8333333,12.5833333 L10.8333333,14.1666667 L14.1666667,14.1666667 C16.4666667,14.1666667 18.3333333,12.3 18.3333333,10 C18.3333333,7.7 16.4666667,5.83333333 14.1666667,5.83333333 Z" id="Shape" fill="#000000"></path>
                </g>
            </g>
            <g id="Group-2" transform="translate(120.000000, 90.000000)">
                <g id="white">
                    <polygon id="Shape" points="0 0 30 0 30 30 0 30"></polygon>
                    <path d="M15,9.01595745 C11.7021277,9.01595745 9.01595745,11.7021277 9.01595745,15 C9.01595745,18.2978723 11.7021277,20.9840426 15,20.9840426 C18.2978723,20.9840426 20.9840426,18.2978723 20.9840426,15 C20.9840426,11.7021277 18.2978723,9.01595745 15,9.01595745 Z M14.0053191,5.02659574 L16,5.02659574 L16,7.0212766 L14.0053191,7.0212766 L14.0053191,5.02659574 Z M14.0053191,22.9787234 L16,22.9787234 L16,24.9734043 L14.0053191,24.9734043 L14.0053191,22.9787234 Z M22.9787234,14.0053191 L24.9734043,14.0053191 L24.9734043,16 L22.9787234,16 L22.9787234,14.0053191 Z M5.02659574,14.0053191 L7.0212766,14.0053191 L7.0212766,16 L5.02659574,16 L5.02659574,14.0053191 Z M19.9361702,8.65425532 L21.3457447,10.0638298 L22.7553191,8.65425532 L21.3457447,7.24468085 L19.9361702,8.65425532 Z M7.24468085,21.3457447 L8.65425532,22.7553191 L10.0638298,21.3457447 L8.65425532,19.9361702 L7.24468085,21.3457447 Z M21.3458617,22.755217 L19.9354229,21.3447782 L21.3458617,19.9343394 L22.7563005,21.3447782 L21.3458617,22.755217 Z M8.6532234,7.24056277 L10.0636622,8.6510016 L8.6532234,10.0614404 L7.24278457,8.6510016 L8.6532234,7.24056277 Z" id="Combined-Shape" fill="#000000"></path>
                </g>
            </g>
            <g id="dark" transform="translate(150.000000, 90.000000)">
                <polygon id="Shape" points="0 0 30 0 30 30 0 30"></polygon>
                <path d="M24.5691489,16.037234 C24.212766,15.7712766 23.7234043,15.7765957 23.3723404,16.0478723 C21.9202128,17.1595745 20.2021277,17.7446809 18.3989362,17.7446809 C13.8297872,17.7446809 10.1170213,13.9734043 10.1170213,9.34042553 C10.1170213,8.33510638 10.2978723,7.33510638 10.6595745,6.36702128 C10.8138298,5.95212766 10.6755319,5.48404255 10.3191489,5.21808511 C9.96276596,4.95212766 9.47340426,4.95744681 9.11702128,5.2287234 C6.51595745,7.21808511 5.02659574,10.2393617 5.02659574,13.5212766 C5.02659574,19.2553191 9.63829787,23.9202128 15.3031915,23.9202128 C19.5478723,23.9202128 23.4095745,21.2180851 24.9095745,17.1914894 C25.0638298,16.7712766 24.9255319,16.3031915 24.5691489,16.037234 Z" id="Shape" fill="#000000"></path>
            </g>
            <g id="ic-fullscreen-exit-48-px" transform="translate(30.000000, 120.000000)">
                <g id="Group">
                    <polygon id="Shape" points="0 0 30 0 30 30 0 30"></polygon>
                    <path d="M6.25,20 L10,20 L10,23.75 L12.5,23.75 L12.5,17.5 L6.25,17.5 L6.25,20 Z M10,10 L6.25,10 L6.25,12.5 L12.5,12.5 L12.5,6.25 L10,6.25 L10,10 Z M17.5,23.75 L20,23.75 L20,20 L23.75,20 L23.75,17.5 L17.5,17.5 L17.5,23.75 Z M20,10 L20,6.25 L17.5,6.25 L17.5,12.5 L23.75,12.5 L23.75,10 L20,10 Z" id="Shape" fill="#000000"></path>
                </g>
            </g>
            <g id="ic-add-48-px" transform="translate(60.000000, 120.000000)">
                <g id="Group">
                    <polygon id="Shape" fill="#000000" points="23.75 16.25 16.25 16.25 16.25 23.75 13.75 23.75 13.75 16.25 6.25 16.25 6.25 13.75 13.75 13.75 13.75 6.25 16.25 6.25 16.25 13.75 23.75 13.75"></polygon>
                    <polygon id="Shape" points="0 0 30 0 30 30 0 30"></polygon>
                </g>
            </g>
            <g id="Group-5" transform="translate(90.000000, 120.000000)">
                <polygon id="Shape" points="0 0 30 0 30 30 0 30"></polygon>
                <path d="M18.5904255,11.4095745 L18.5904255,6.02393617 L6.02393617,6.02393617 L6.02393617,18.5904255 L11.4095745,18.5904255 L11.4095745,23.9760638 L23.9760638,23.9760638 L23.9760638,11.4095745 L18.5904255,11.4095745 Z M7.81914894,16.7952128 L7.81914894,7.81914894 L16.7952128,7.81914894 L16.7952128,11.4095745 L16.7952128,16.7952128 L11.4095745,16.7952128 L7.81914894,16.7952128 Z M22.1808511,22.1808511 L13.2047872,22.1808511 L13.2047872,18.5904255 L18.5904255,18.5904255 L18.5904255,13.2047872 L22.1808511,13.2047872 L22.1808511,22.1808511 Z" id="Shape" fill="#000000"></path>
            </g>
            <g id="Group-5" transform="translate(120.000000, 120.000000)">
                <polygon id="Shape" points="0 0 30 0 30 30 0 30"></polygon>
                <path d="M18.5904255,11.4095745 L18.5904255,6.02393617 L6.02393617,6.02393617 L6.02393617,18.5904255 L11.4095745,18.5904255 L11.4095745,23.9760638 L23.9760638,23.9760638 L23.9760638,11.4095745 L18.5904255,11.4095745 Z M7.81914894,16.7952128 L7.81914894,7.81914894 L16.7952128,7.81914894 L16.7952128,11.4095745 L16.7952128,16.7952128 L11.4095745,16.7952128 L7.81914894,16.7952128 Z M22.1808511,22.1808511 L13.2047872,22.1808511 L13.2047872,18.5904255 L18.5904255,18.5904255 L18.5904255,13.2047872 L22.1808511,13.2047872 L22.1808511,22.1808511 Z" id="Shape" fill="#000000" transform="translate(15.000000, 15.000000) rotate(-180.000000) translate(-15.000000, -15.000000) "></path>
            </g>
            <g id="Group-4" transform="translate(150.000000, 120.000000)">
                <polygon id="Shape" points="0 0 30 0 30 30 0 30"></polygon>
                <path d="M23.0250633,11.5984535 C23.3658179,11.257699 23.5529929,10.8065591 23.5529929,10.3266231 C23.5529929,9.84668711 23.3658179,9.39554726 23.0250633,9.05479269 L20.4814025,6.51113185 C19.7998933,5.82962272 18.6144514,5.82962272 17.9377416,6.51113185 L8.69417411,15.7546994 L7,22.5361952 L13.7862952,20.8420211 L23.0250633,11.5984535 Z M10.7770964,16.2154379 L16.862685,10.1298494 L19.4063458,12.6735102 L13.3207572,18.7590988 L10.7770964,16.2154379 Z M19.2095721,7.78296227 L21.7532329,10.3266231 L20.6781762,11.4016798 L18.1345154,8.85801893 L19.2095721,7.78296227 Z M9.99480069,17.9720037 L11.5641914,19.5413945 L9.47167044,20.0645247 L9.99480069,17.9720037 Z M11.8329556,22.20024 L23.5241968,22.20024 L23.5241968,24 L11.8329556,24 L11.8329556,22.20024 Z" id="Combined-Shape" fill="#000000"></path>
            </g>
            <g id="Group-5" transform="translate(180.000000, 120.000000)">
                <polygon id="Shape" points="0 0 30 0 30 30 0 30"></polygon>
                <polygon id="Shape" fill="#000000" points="22.1569149 20.3617021 22.1569149 9.06382979 23.6888298 7.53191489 22.4202128 6.26329787 20.8882979 7.79521277 9.59042553 7.79521277 9.59042553 6 7.79521277 6 7.79521277 7.79521277 6 7.79521277 6 9.59042553 19.0930851 9.59042553 9.59042553 19.0930851 9.59042553 11.3856383 7.79521277 11.3856383 7.79521277 22.1569149 18.5664894 22.1569149 18.5664894 20.3617021 10.8590426 20.3617021 20.3617021 10.8590426 20.3617021 23.9521277 22.1569149 23.9521277 22.1569149 22.1569149 23.9521277 22.1569149 23.9521277 20.3617021"></polygon>
            </g>
            <g id="Group-4" transform="translate(210.000000, 120.000000)">
                <polygon id="Shape" points="0 0 30 0 30 30 0 30"></polygon>
                <path d="M23.9994008,8.70158961 C23.9994008,7.20923727 22.7901635,6 21.2978112,6 C19.8054588,6 18.5962215,7.20923727 18.5962215,8.70158961 C18.5962215,9.59412188 19.0376891,10.3810858 19.704689,10.8753376 L18.7305812,14.1191645 C17.9820058,14.0903732 17.2430275,14.3015098 16.6192146,14.714186 L12.7803661,11.2592224 C13.0394884,10.7601721 13.1978409,10.2035391 13.1978409,9.603719 C13.1978409,7.61711492 11.5855245,6.00479856 9.59892044,6.00479856 C7.61231636,6.00479856 6,7.61711492 6,9.603719 C6,11.5903231 7.61231636,13.2026394 9.59892044,13.2026394 C10.3331002,13.2026394 11.0144958,12.9819057 11.5855245,12.6028194 L15.4099773,16.0433873 C15.0788766,16.6815959 14.9493155,17.3725886 15.0164953,18.0443871 L10.7889635,19.584725 C10.1267621,18.7833654 9.03748885,18.3994806 7.9722084,18.7017899 C6.53743879,19.104869 5.70248924,20.5972213 6.10556833,22.0319909 C6.50864742,23.4667605 8.00099977,24.3017101 9.43576938,23.898631 C10.630611,23.5627318 11.3983807,22.4638614 11.3935821,21.2786169 L15.6451068,19.7334804 C15.9522147,20.1797465 16.3552937,20.5732285 16.8591426,20.8563436 C18.6010201,21.8160557 20.7891637,21.1826457 21.7488759,19.4407682 C22.6845952,17.7420778 22.0991708,15.6307111 20.4532645,14.6326105 L21.4273723,11.3935821 C22.8621419,11.3168051 23.9994008,10.1459563 23.9994008,8.70158961 Z M8.95111476,22.1615521 C8.4712587,22.2959118 7.9722084,22.0175952 7.83784871,21.5377392 C7.70348901,21.0578831 7.98180552,20.5588328 8.46166158,20.4244731 C8.94151764,20.2901134 9.44056794,20.5684299 9.57492764,21.048286 C9.70928733,21.5281421 9.43097082,22.0271924 8.95111476,22.1615521 Z M21.2978112,7.79946022 C21.7968615,7.79946022 22.1999405,8.20253931 22.1999405,8.70158961 C22.1999405,9.20063991 21.7968615,9.603719 21.2978112,9.603719 C20.7987609,9.603719 20.3956818,9.20063991 20.3956818,8.70158961 C20.3956818,8.20253931 20.8035594,7.79946022 21.2978112,7.79946022 Z M7.80425878,9.603719 C7.80425878,8.6056184 8.61521552,7.80425878 9.603719,7.80425878 C10.5922225,7.80425878 11.4031792,8.6056184 11.4031792,9.603719 C11.4031792,10.5922225 10.5922225,11.4031792 9.603719,11.4031792 C8.61521552,11.4031792 7.80425878,10.5922225 7.80425878,9.603719 Z M20.174948,18.5674302 C19.6950919,19.4359696 18.5962215,19.7526746 17.7324806,19.2728186 C16.8639412,18.7929625 16.5472362,17.6940922 17.0270922,16.8303512 C17.5069483,15.9570132 18.6058187,15.6451068 19.4695596,16.1249628 C20.338099,16.6000203 20.6596026,17.6892936 20.174948,18.5674302 Z" id="Shape" fill="#000000"></path>
            </g>
            <g id="ic-add-48-px" transform="translate(240.000000, 120.000000)">
                <polygon id="Shape" points="0 0 30 0 30 30 0 30"></polygon>
                <path d="M8.80383795,21.2990405 C8.80383795,22.7862473 10.0127932,24 11.5047974,24 L18.7009595,24 C20.1881663,24 21.401919,22.7910448 21.401919,21.2990405 L21.401919,13.2009595 L8.80383795,13.2009595 L8.80383795,21.2990405 Z M10.6028785,15 L19.598081,15 L19.598081,21.2990405 C19.598081,21.793177 19.1950959,22.2009595 18.696162,22.2009595 L11.5,22.2009595 C11.0058635,22.2009595 10.598081,21.7979744 10.598081,21.2990405 L10.598081,15 L10.6028785,15 Z M19.598081,9.60287846 L19.598081,8.70095949 C19.598081,7.21375267 18.3891258,6 16.8971215,6 L13.2990405,6 C11.8118337,6 10.598081,7.20895522 10.598081,8.70095949 L10.598081,9.60287846 L7,9.60287846 L7,11.401919 L10.598081,11.401919 L19.5932836,11.401919 L23.1913646,11.401919 L23.1913646,9.60287846 L19.598081,9.60287846 Z M12.401919,9.60287846 L12.401919,8.70095949 C12.401919,8.20682303 12.8049041,7.79904051 13.303838,7.79904051 L16.901919,7.79904051 C17.3960554,7.79904051 17.803838,8.20202559 17.803838,8.70095949 L17.803838,9.60287846 L12.401919,9.60287846 Z M16,16.7990405 L17.7990405,16.7990405 L17.7990405,20.3971215 L16,20.3971215 L16,16.7990405 Z M12.401919,16.7990405 L14.2009595,16.7990405 L14.2009595,20.3971215 L12.401919,20.3971215 L12.401919,16.7990405 Z" id="Combined-Shape" fill="#000000"></path>
            </g>
            <path d="M211.796641,151 C207.827834,151 204.59808,154.2304 204.59808,158.2 C204.59808,159.8608 205.169166,161.3872 206.119376,162.6064 L201.262747,167.464 C200.912418,167.8144 200.912418,168.3856 201.262747,168.736 C201.440312,168.9136 201.670666,169 201.90102,169 C202.131374,169 202.361728,168.9136 202.539292,168.736 L207.395921,163.8784 C208.614877,164.8288 210.140972,165.4 211.80144,165.4 C215.770246,165.4 219,162.1696 219,158.2 C218.995201,154.2304 215.765447,151 211.796641,151 Z M211.796641,163.6 C208.821236,163.6 206.39772,161.176 206.39772,158.2 C206.39772,155.224 208.821236,152.8 211.796641,152.8 C214.772046,152.8 217.195561,155.224 217.195561,158.2 C217.195561,161.176 214.772046,163.6 211.796641,163.6 Z" id="Shape" fill="#000000"></path>
            <polygon id="Shape" fill="#000000" points="239 161 231 161 231 169 229 169 229 161 221 161 221 159 229 159 229 151 231 151 231 159 239 159"></polygon>
            <g id="Group-6" transform="translate(16.000000, 170.000000)">
                <g id="ic-clear-48-px">
                    <g id="Group">
                        <circle id="Oval-4" fill="#222222" cx="8" cy="8" r="7"></circle>
                        <path d="M8.7,7.3 L8.7,3.8 L7.3,3.8 L7.3,7.3 L3.8,7.3 L3.8,8.7 L7.3,8.7 L7.3,12.2 L8.7,12.2 L8.7,8.7 L12.2,8.7 L12.2,7.3 L8.7,7.3 Z" id="Combined-Shape" fill="#FFFFFF"></path>
                        <polygon id="Shape" points="0 0 16 0 16 16 0 16"></polygon>
                    </g>
                </g>
            </g>
            <g id="Group-6-Copy" transform="translate(0.000000, 170.000000)">
                <g id="ic-clear-48-px">
                    <g id="Group">
                        <circle id="Oval-4" fill="#222222" cx="8" cy="8" r="7"></circle>
                        <path d="M8.7,7.3 L8.7,3.8 L7.3,3.8 L7.3,7.3 L3.8,7.3 L3.8,8.7 L7.3,8.7 L7.3,12.2 L8.7,12.2 L8.7,8.7 L12.2,8.7 L12.2,7.3 L8.7,7.3 Z" id="Combined-Shape" fill="#FFFFFF" transform="translate(8.000000, 8.000000) rotate(-315.000000) translate(-8.000000, -8.000000) "></path>
                        <polygon id="Shape" points="0 0 16 0 16 16 0 16"></polygon>
                    </g>
                </g>
            </g>
            <polygon id="Shape" fill="#ACACAC" points="80 72 62 72 62 90 58 90 58 72 40 72 40 68 58 68 58 50 62 50 62 68 80 68"></polygon>
            <g id="ic-power-settings-new-48-px" transform="translate(360.000000, 90.000000)">
                <g id="Group">
                    <polygon id="Shape" points="0 0 30 0 30 30 0 30"></polygon>
                    <path d="M16.25,3.75 L13.75,3.75 L13.75,16.25 L16.25,16.25 L16.25,3.75 Z M22.29375,6.45625 L20.525,8.225 C22.4875,9.83125 23.75,12.2625 23.75,15 C23.75,19.83125 19.83125,23.75 15,23.75 C10.16875,23.75 6.25,19.83125 6.25,15 C6.25,12.2625 7.5125,9.83125 9.475,8.225 L7.70625,6.45625 C5.29375,8.51875 3.75,11.575 3.75,15 C3.75,21.2125 8.7875,26.25 15,26.25 C21.2125,26.25 26.25,21.2125 26.25,15 C26.25,11.575 24.70625,8.51875 22.29375,6.45625 Z" id="Shape" fill="#000000"></path>
                </g>
            </g>
            <g id="CN" transform="translate(0.000000, 186.000000)">
                <mask id="mask-4" fill="white">
                    <use xlink:href="#path-3"></use>
                </mask>
                <use id="Mask" fill="#FFFFFF" xlink:href="#path-3"></use>
                <rect id="Mask" fill="#F1361D" mask="url(#mask-4)" x="0" y="0" width="20" height="14"></rect>
                <path d="M9.45411555,4.18409872 L8.86666667,4.54162371 L8.88256795,3.85411555 L8.52504296,3.26666667 L9.21255111,3.28256795 L9.8,2.92504296 L9.78409872,3.61255111 L10.1416237,4.2 L9.45411555,4.18409872 Z M7.72876013,2.28610389 L7.05084933,2.17053028 L7.51389611,1.66209346 L7.62946972,0.984182663 L8.13790654,1.44722945 L8.81581734,1.56280306 L8.35277055,2.07123987 L8.23719694,2.74915067 L7.72876013,2.28610389 Z M8.06977346,8.37960889 L7.49515987,8.75741775 L7.48705778,8.06977346 L7.10924891,7.49515987 L7.7968932,7.48705778 L8.37150679,7.10924891 L8.37960889,7.7968932 L8.75741775,8.37150679 L8.06977346,8.37960889 Z M9.25229752,6.52624362 L8.56879143,6.60200467 L8.87375638,5.98563085 L8.79799533,5.30212476 L9.41436915,5.60708972 L10.0978752,5.53132866 L9.79291028,6.14770248 L9.86867134,6.83120857 L9.25229752,6.52624362 Z" id="Star-2" fill="#FFDC42" mask="url(#mask-4)"></path>
                <polygon id="Star-8" fill="#FFDC42" mask="url(#mask-4)" points="4.66666667 5.75866671 3.02086796 6.93191425 3.62811291 5.00411324 2.00370842 3.80141908 4.02480515 3.78322007 4.66666667 1.86666667 5.30852819 3.78322007 7.32962491 3.80141908 5.70522042 5.00411324 6.31246537 6.93191425"></polygon>
            </g>
            <g id="US" transform="translate(30.000000, 186.000000)">
                <mask id="mask-6" fill="white">
                    <use xlink:href="#path-5"></use>
                </mask>
                <use id="Mask" fill="#FFFFFF" xlink:href="#path-5"></use>
                <path d="M0,0 L20,0 L20,0.933333333 L0,0.933333333 L0,0 Z M0,1.86666667 L20,1.86666667 L20,2.8 L0,2.8 L0,1.86666667 Z M0,3.73333333 L20,3.73333333 L20,4.66666667 L0,4.66666667 L0,3.73333333 Z M0,5.6 L20,5.6 L20,6.53333333 L0,6.53333333 L0,5.6 Z M0,7.46666667 L20,7.46666667 L20,8.4 L0,8.4 L0,7.46666667 Z M0,9.33333333 L20,9.33333333 L20,10.2666667 L0,10.2666667 L0,9.33333333 Z M0,11.2 L20,11.2 L20,12.1333333 L0,12.1333333 L0,11.2 Z M0,13.0666667 L20,13.0666667 L20,14 L0,14 L0,13.0666667 Z" id="Rectangle-511" fill="#D02F44" mask="url(#mask-6)"></path>
                <rect id="Rectangle-511" fill="#46467F" mask="url(#mask-6)" x="0" y="0" width="8.4" height="6.53333333"></rect>
                <g id="Oval-43" mask="url(#mask-6)">
                    <use fill="black" fill-opacity="1" filter="url(#filter-9)" xlink:href="#path-8"></use>
                    <use fill="url(#linearGradient-7)" fill-rule="evenodd" xlink:href="#path-8"></use>
                </g>
            </g>
            <g id="JP" transform="translate(60.000000, 186.000000)">
                <mask id="mask-11" fill="white">
                    <use xlink:href="#path-10"></use>
                </mask>
                <use id="Mask" fill="#FFFFFF" xlink:href="#path-10"></use>
                <ellipse id="Oval-9" fill="url(#linearGradient-12)" mask="url(#mask-11)" cx="10" cy="7" rx="4" ry="4"></ellipse>
            </g>
        </g>
    </g>
</svg>